# xmcd
#
# Track frame offsets:
# 150
# 17897
# 34033
# 52899
# 74533
# 81796
# 96630
# 113676
# 128463
# 142184
# 157488
#
# Disc length: 2357 seconds
#
#
# Revision: 5
# Processed by: cddbd v1.5.1PL0 Copyright (c) Steve Scherf et al.
# Submitted via: FreeRIP 2.92 
#
DISCID=9b09330b
DTITLE=Ben Harper - There Will Be a Light
DYEAR=2004
DGENRE=Blues Gospel
TTITLE0=Take My Hand
TTITLE1=Wicked Man
TTITLE2=Where Could I Go
TTITLE3=Church House Steps
TTITLE4=11th Commandment
TTITLE5=Well, Well, Well
TTITLE6=Pictures of Jesus
TTITLE7=Satisfied Mind
TTITLE8=Mother Pray
TTITLE9=There Will Be a Light
TTITLE10=Church on Time
EXTD=Rets
EXTT0=
EXTT1=
EXTT2=
EXTT3=
EXTT4=
EXTT5=
EXTT6=
EXTT7=
EXTT8=
EXTT9=
EXTT10=
PLAYORDER=
